<svg width="40" height="32" viewBox="0 0 40 32" fill="none" xmlns="http://www.w3.org/2000/svg">
<rect opacity="0.2" width="40" height="32" rx="2" fill="#F2F2F2"/>
<path fill-rule="evenodd" clip-rule="evenodd" d="M27.2634 10.2664C27.6865 9.84329 27.6865 9.15736 27.2634 8.73429C26.8404 8.31123 26.1544 8.31123 25.7314 8.73429L19.9974 14.4683L14.2634 8.73429C13.8404 8.31123 13.1544 8.31123 12.7314 8.73429C12.3083 9.15736 12.3083 9.84329 12.7314 10.2664L18.4653 16.0003L12.7314 21.7343C12.3083 22.1574 12.3083 22.8433 12.7314 23.2664C13.1544 23.6894 13.8404 23.6894 14.2634 23.2664L19.9974 17.5324L25.7314 23.2664C26.1544 23.6894 26.8404 23.6894 27.2634 23.2664C27.6865 22.8433 27.6865 22.1574 27.2634 21.7343L21.5295 16.0003L27.2634 10.2664Z" fill="#4D4D4D"/>
</svg>