<svg width="40" height="32" viewBox="0 0 40 32" fill="none" xmlns="http://www.w3.org/2000/svg">
<rect width="40" height="32" rx="2" fill="#1A181E" fill-opacity="0.1"/>
<path fill-rule="evenodd" clip-rule="evenodd" d="M9.3335 11.9998C9.3335 11.2635 9.76764 10.6665 10.3032 10.6665H29.6971C30.2327 10.6665 30.6668 11.2635 30.6668 11.9998C30.6668 12.7362 30.2327 13.3332 29.6971 13.3332H10.3032C9.76764 13.3332 9.3335 12.7362 9.3335 11.9998ZM9.3335 19.9998C9.3335 19.2635 9.76764 18.6665 10.3032 18.6665H29.6971C30.2327 18.6665 30.6668 19.2635 30.6668 19.9998C30.6668 20.7362 30.2327 21.3332 29.6971 21.3332H10.3032C9.76764 21.3332 9.3335 20.7362 9.3335 19.9998Z" fill="#1A181E"/>
</svg>